<svg xmlns="http://www.w3.org/2000/svg" version="1.1" xmlns:xlink="http://www.w3.org/1999/xlink" xmlns:svgjs="http://svgjs.dev/svgjs" width="1500" height="469" viewBox="0 0 1500 469"><g transform="matrix(1,0,0,1,-0.9090909090909918,-0.07887877208355576)"><svg viewBox="0 0 396 124" data-background-color="#471aa0" preserveAspectRatio="xMidYMid meet" height="469" width="1500" xmlns="http://www.w3.org/2000/svg" xmlns:xlink="http://www.w3.org/1999/xlink"><g id="tight-bounds" transform="matrix(1,0,0,1,0.2400000000000091,0.020854941872840982)"><svg viewBox="0 0 395.52 123.95812677020363" height="123.95812677020363" width="395.52"><g><svg viewBox="0 0 677.102822903445 212.20772036288426" height="123.95812677020363" width="395.52"><g transform="matrix(1,0,0,1,281.582822903445,8.140799313501176)"><svg viewBox="0 0 395.52 195.9261217358819" height="195.9261217358819" width="395.52"><g id="textblocktransform"><svg viewBox="0 0 395.52 195.9261217358819" height="195.9261217358819" width="395.52" id="textblock"><g><svg viewBox="0 0 395.52 146.93383177570092" height="146.93383177570092" width="395.52"><g transform="matrix(1,0,0,1,0,0)"><svg width="395.52" viewBox="1.55 -31.3 85.59 31.8" height="146.93383177570092" data-palette-color="#ffffff"><path d="M1.55-30.8L5-31.3 9.65-3.2Q10.7-3.35 11.8-3.35L11.8-3.35Q13-3.35 13.95-3.2L13.95-3.2 18.6-31.3 22.05-30.8 16.85 0.5Q15.4 0.1 14.15-0.03 12.9-0.15 11.8-0.15L11.8-0.15Q10.7-0.15 9.45-0.03 8.2 0.1 6.75 0.5L6.75 0.5 1.55-30.8ZM25.2-1.75L25.2-13.25Q25.2-14.2 25.25-15.5 25.3-16.8 25.72-18.2 26.15-19.6 27.25-20.8L27.25-20.8Q28.65-22.3 30.32-22.65 32-23 33.25-23L33.25-23Q34.55-23 36.2-22.65 37.85-22.3 39.25-20.8L39.25-20.8Q40.35-19.6 40.77-18.2 41.2-16.8 41.25-15.5 41.3-14.2 41.3-13.25L41.3-13.25 41.3-5.1 43-3.05Q41-1.3 38.6-0.4 36.2 0.5 33.25 0.5L33.25 0.5Q30.35 0.5 28.37-0.23 26.4-0.95 25.2-1.75L25.2-1.75ZM28.4-13.35L28.4-3.8Q29.55-3 30.85-2.75 32.15-2.5 33.25-2.5L33.25-2.5Q34.35-2.5 35.67-2.75 37-3 38.1-3.8L38.1-3.8 38.1-13.35Q38.1-14.45 37.97-15.85 37.85-17.25 37.1-18.3L37.1-18.3Q36.75-18.8 35.85-19.4 34.95-20 33.25-20L33.25-20Q31.55-20 30.67-19.4 29.8-18.8 29.4-18.3L29.4-18.3Q28.65-17.25 28.52-15.85 28.4-14.45 28.4-13.35L28.4-13.35ZM45.65-28.5L49.84-28.5 49.84-22.5 54.59-22.5 54.59-19.4 49.84-19.4 49.84-12.95Q49.84-11.55 49.92-9.8 50-8.05 50.95-6.45L50.95-6.45Q51.65-5.3 53.12-4.05 54.59-2.8 55.9-2L55.9-2 54 0.5Q52.55-0.3 51.07-1.5 49.59-2.7 48.65-4L48.65-4Q47.3-5.9 46.97-7.83 46.65-9.75 46.65-11.65L46.65-11.65 46.65-25.35 45.65-28.5ZM57.89-28.5L62.09-28.5 62.09-22.5 66.84-22.5 66.84-19.4 62.09-19.4 62.09-12.95Q62.09-11.55 62.17-9.8 62.24-8.05 63.19-6.45L63.19-6.45Q63.89-5.3 65.37-4.05 66.84-2.8 68.14-2L68.14-2 66.24 0.5Q64.79-0.3 63.32-1.5 61.84-2.7 60.89-4L60.89-4Q59.54-5.9 59.22-7.83 58.89-9.75 58.89-11.65L58.89-11.65 58.89-25.35 57.89-28.5ZM73.64-19.85L73.89-23Q75.99-23 78.09-22.63 80.19-22.25 81.94-21.33 83.69-20.4 84.74-18.68 85.79-16.95 85.79-14.25L85.79-14.25 85.79-4.25 87.14-1.95Q84.84-0.65 82.57-0.08 80.29 0.5 78.39 0.5L78.39 0.5Q75.94 0.5 74.44-0.13 72.94-0.75 72.09-1.55L72.09-1.55Q71.29-2.4 70.69-3.68 70.09-4.95 70.09-6.55L70.09-6.55Q70.09-9.05 71.14-10.68 72.19-12.3 73.97-13.2 75.74-14.1 77.97-14.48 80.19-14.85 82.59-14.85L82.59-14.85Q82.49-16.5 81.62-17.48 80.74-18.45 79.42-18.95 78.09-19.45 76.59-19.63 75.09-19.8 73.64-19.85L73.64-19.85ZM82.59-3.35L82.59-11.85Q81.39-11.85 79.84-11.7 78.29-11.55 76.84-11.08 75.39-10.6 74.44-9.6 73.49-8.6 73.49-6.9L73.49-6.9Q73.49-5.75 73.84-4.98 74.19-4.2 74.64-3.8L74.64-3.8Q75.44-3 76.47-2.75 77.49-2.5 78.49-2.5L78.49-2.5Q79.69-2.5 80.69-2.75 81.69-3 82.59-3.35L82.59-3.35Z" opacity="1" transform="matrix(1,0,0,1,0,0)" fill="#ffffff" class="wordmark-text-0" data-fill-palette-color="primary" id="text-0"></path></svg></g></svg></g><g transform="matrix(1,0,0,1,0,181.6213830459813)"><svg viewBox="0 0 232.209792 14.304738689900603" height="14.304738689900603" width="232.209792"><g transform="matrix(1,0,0,1,0,0)"><svg width="232.209792" viewBox="4.7 -37.6 814.8 50.2" height="14.304738689900603" data-palette-color="#ffffff"><path d="M4.7 0L4.7-32.5 14.6-32.5Q21.6-32.5 25.48-28.28 29.35-24.05 29.35-16.15L29.35-16.15Q29.35-8.3 25.53-4.15 21.7 0 14.6 0L14.6 0 4.7 0ZM8.5-2.4L14.65-2.4Q25.25-2.4 25.25-16.15L25.25-16.15Q25.25-30.1 14.6-30.1L14.6-30.1 8.5-30.1 8.5-2.4ZM44.2 0.5Q39 0.5 36.27-2.9 33.55-6.3 33.55-12.5L33.55-12.5Q33.55-18.7 36.27-22.1 39-25.5 44.2-25.5L44.2-25.5Q49.4-25.5 52.12-22.1 54.85-18.7 54.85-12.5L54.85-12.5Q54.85-6.35 52.07-2.93 49.3 0.5 44.2 0.5L44.2 0.5ZM44.2-1.7Q47.7-1.7 49.35-4.38 51-7.05 51-12.5L51-12.5Q51-17.9 49.35-20.6 47.7-23.3 44.2-23.3L44.2-23.3Q40.7-23.3 39.05-20.63 37.4-17.95 37.4-12.5L37.4-12.5Q37.4-7.05 39.05-4.38 40.7-1.7 44.2-1.7L44.2-1.7ZM60.5 0L60.5-25 63.5-25 63.95-22.6Q64.75-23.55 66.45-24.53 68.15-25.5 71.34-25.5L71.34-25.5Q74.95-25.5 76.95-23.48 78.95-21.45 78.95-17.45L78.95-17.45 78.95 0 75.3 0 75.3-16.7Q75.3-19.9 74-21.38 72.7-22.85 70.15-22.85L70.15-22.85Q68.34-22.85 67-22.3 65.65-21.75 64.87-21.1 64.09-20.45 64.09-20.35L64.09-20.35 64.09 0 60.5 0ZM91.24 0.5Q87.94 0.5 85.94-1.13 83.94-2.75 83.94-5.65L83.94-5.65Q83.94-13 98.09-14.5L98.09-14.5 98.09-17.15Q98.09-20.7 96.94-22 95.79-23.3 92.89-23.3L92.89-23.3Q91.59-23.3 90.24-22.83 88.89-22.35 87.97-21.83 87.04-21.3 86.79-21.15L86.79-21.15 86.39-23.2Q86.64-23.4 87.67-23.95 88.69-24.5 90.27-25 91.84-25.5 93.44-25.5L93.44-25.5Q97.74-25.5 99.74-23.7 101.74-21.9 101.74-17.35L101.74-17.35 101.74-5.1Q101.74-3.1 102.12-2.4 102.49-1.7 103.04-1.7L103.04-1.7Q103.49-1.7 104.14-1.88 104.79-2.05 104.99-2.15L104.99-2.15 105.14-0.45Q104.74-0.3 103.44 0.1 102.14 0.5 101.24 0.5L101.24 0.5Q99.94 0.5 99.24-0.33 98.54-1.15 98.39-3.25L98.39-3.25 98.34-3.25Q98.34-3.05 97.54-2.1 96.74-1.15 95.17-0.33 93.59 0.5 91.24 0.5L91.24 0.5ZM92.34-1.7Q94.14-1.7 95.44-2.5 96.74-3.3 97.42-4.25 98.09-5.2 98.09-5.35L98.09-5.35 98.09-12.65Q93.54-12.15 90.62-10.7 87.69-9.25 87.69-6.1L87.69-6.1Q87.69-3.95 88.94-2.83 90.19-1.7 92.34-1.7L92.34-1.7ZM126.74 0.5Q123.44 0.5 121.44-1.13 119.44-2.75 119.44-5.65L119.44-5.65Q119.44-13 133.59-14.5L133.59-14.5 133.59-17.15Q133.59-20.7 132.44-22 131.29-23.3 128.39-23.3L128.39-23.3Q127.09-23.3 125.74-22.83 124.39-22.35 123.46-21.83 122.54-21.3 122.29-21.15L122.29-21.15 121.89-23.2Q122.14-23.4 123.16-23.95 124.19-24.5 125.76-25 127.34-25.5 128.94-25.5L128.94-25.5Q133.24-25.5 135.24-23.7 137.24-21.9 137.24-17.35L137.24-17.35 137.24-5.1Q137.24-3.1 137.61-2.4 137.99-1.7 138.54-1.7L138.54-1.7Q138.99-1.7 139.64-1.88 140.29-2.05 140.49-2.15L140.49-2.15 140.64-0.45Q140.24-0.3 138.94 0.1 137.64 0.5 136.74 0.5L136.74 0.5Q135.44 0.5 134.74-0.33 134.04-1.15 133.89-3.25L133.89-3.25 133.84-3.25Q133.84-3.05 133.04-2.1 132.24-1.15 130.66-0.33 129.09 0.5 126.74 0.5L126.74 0.5ZM127.84-1.7Q129.64-1.7 130.94-2.5 132.24-3.3 132.91-4.25 133.59-5.2 133.59-5.35L133.59-5.35 133.59-12.65Q129.04-12.15 126.11-10.7 123.19-9.25 123.19-6.1L123.19-6.1Q123.19-3.95 124.44-2.83 125.69-1.7 127.84-1.7L127.84-1.7ZM145.44 0L145.44-25 148.44-25 148.88-22.35Q149.74-23.35 151.49-24.43 153.24-25.5 155.94-25.5L155.94-25.5Q157.99-25.5 159.26-24.78 160.53-24.05 161.19-22.45L161.19-22.45Q161.99-23.4 163.84-24.45 165.69-25.5 168.49-25.5L168.49-25.5Q171.63-25.5 173.09-23.85 174.53-22.2 174.53-18.35L174.53-18.35 174.53 0 170.88 0 170.88-17.95Q170.88-20.85 169.99-21.88 169.09-22.9 167.13-22.9L167.13-22.9Q165.09-22.9 163.71-21.98 162.34-21.05 161.69-20.15L161.69-20.15Q161.78-19.05 161.78-18.4L161.78-18.4 161.78 0 158.13 0 158.13-17.95Q158.13-20.8 157.26-21.85 156.38-22.9 154.49-22.9L154.49-22.9Q152.38-22.9 150.96-21.95 149.53-21 149.03-20.2L149.03-20.2 149.03 0 145.44 0ZM190.43 0.5Q185.23 0.5 182.51-2.9 179.78-6.3 179.78-12.5L179.78-12.5Q179.78-18.7 182.51-22.1 185.23-25.5 190.43-25.5L190.43-25.5Q195.63-25.5 198.36-22.1 201.08-18.7 201.08-12.5L201.08-12.5Q201.08-6.35 198.31-2.93 195.53 0.5 190.43 0.5L190.43 0.5ZM190.43-1.7Q193.93-1.7 195.58-4.38 197.23-7.05 197.23-12.5L197.23-12.5Q197.23-17.9 195.58-20.6 193.93-23.3 190.43-23.3L190.43-23.3Q186.93-23.3 185.28-20.63 183.63-17.95 183.63-12.5L183.63-12.5Q183.63-7.05 185.28-4.38 186.93-1.7 190.43-1.7L190.43-1.7ZM206.68 0L206.68-25 209.38-25 209.93-19.85Q209.93-20.15 210.51-21.58 211.08-23 212.28-24.25 213.48-25.5 215.38-25.5L215.38-25.5Q216.33-25.5 217.53-25.18 218.73-24.85 219.08-24.7L219.08-24.7 218.73-21.95Q218.38-22.1 217.16-22.4 215.93-22.7 214.98-22.7L214.98-22.7Q213.53-22.7 212.51-21.73 211.48-20.75 210.98-19.65 210.48-18.55 210.33-18L210.33-18 210.33 0 206.68 0ZM231.23 0.5Q226.23 0.5 223.38-2.63 220.53-5.75 220.53-12L220.53-12Q220.53-18.3 223.28-21.9 226.03-25.5 230.78-25.5L230.78-25.5Q235.08-25.5 237.4-22.53 239.73-19.55 239.73-14.1L239.73-14.1Q239.73-13.15 239.63-12.55 239.53-11.95 239.48-11.8L239.48-11.8 224.33-11.8Q224.33-1.7 231.63-1.7L231.63-1.7Q233.63-1.7 235.05-2.43 236.48-3.15 237.28-3.98 238.08-4.8 238.08-4.95L238.08-4.95 239.53-3.75Q239.53-3.55 238.58-2.48 237.63-1.4 235.78-0.45 233.93 0.5 231.23 0.5L231.23 0.5ZM224.38-13.9L236.33-13.9 236.38-14.85Q236.38-23.35 230.78-23.35L230.78-23.35Q227.83-23.35 226.23-21.03 224.63-18.7 224.38-13.9L224.38-13.9ZM256.72 12.6L256.72-25 259.72-25 260.17-22Q260.87-23.1 262.57-24.3 264.27-25.5 267.27-25.5L267.27-25.5Q271.67-25.5 274.3-22.25 276.92-19 276.92-13.2L276.92-13.2Q276.92-6.9 274.27-3.2 271.62 0.5 266.77 0.5L266.77 0.5Q264.72 0.5 263.3-0.03 261.87-0.55 261.12-1.18 260.37-1.8 260.37-1.9L260.37-1.9 260.32-1.9 260.32 12.5 256.72 12.6ZM265.57-1.9Q269.47-1.9 271.27-4.67 273.07-7.45 273.07-13.1L273.07-13.1Q273.07-18.35 271.27-20.7 269.47-23.05 266.07-23.05L266.07-23.05Q264.27-23.05 262.97-22.3 261.67-21.55 261-20.68 260.32-19.8 260.32-19.65L260.32-19.65 260.32-4.1Q260.87-3.4 262.15-2.65 263.42-1.9 265.57-1.9L265.57-1.9ZM291.32 0.5Q286.32 0.5 283.47-2.63 280.62-5.75 280.62-12L280.62-12Q280.62-18.3 283.37-21.9 286.12-25.5 290.87-25.5L290.87-25.5Q295.17-25.5 297.5-22.53 299.82-19.55 299.82-14.1L299.82-14.1Q299.82-13.15 299.72-12.55 299.62-11.95 299.57-11.8L299.57-11.8 284.42-11.8Q284.42-1.7 291.72-1.7L291.72-1.7Q293.72-1.7 295.15-2.43 296.57-3.15 297.37-3.98 298.17-4.8 298.17-4.95L298.17-4.95 299.62-3.75Q299.62-3.55 298.67-2.48 297.72-1.4 295.87-0.45 294.02 0.5 291.32 0.5L291.32 0.5ZM284.47-13.9L296.42-13.9 296.47-14.85Q296.47-23.35 290.87-23.35L290.87-23.35Q287.92-23.35 286.32-21.03 284.72-18.7 284.47-13.9L284.47-13.9ZM305.12 0L305.12-25 307.82-25 308.37-19.85Q308.37-20.15 308.94-21.58 309.52-23 310.72-24.25 311.92-25.5 313.82-25.5L313.82-25.5Q314.77-25.5 315.97-25.18 317.17-24.85 317.52-24.7L317.52-24.7 317.17-21.95Q316.82-22.1 315.59-22.4 314.37-22.7 313.42-22.7L313.42-22.7Q311.97-22.7 310.94-21.73 309.92-20.75 309.42-19.65 308.92-18.55 308.77-18L308.77-18 308.77 0 305.12 0ZM333.21 0L333.21-25 335.91-25 336.46-19.85Q336.46-20.15 337.04-21.58 337.61-23 338.81-24.25 340.01-25.5 341.91-25.5L341.91-25.5Q342.86-25.5 344.06-25.18 345.26-24.85 345.61-24.7L345.61-24.7 345.26-21.95Q344.91-22.1 343.69-22.4 342.46-22.7 341.51-22.7L341.51-22.7Q340.06-22.7 339.04-21.73 338.01-20.75 337.51-19.65 337.01-18.55 336.86-18L336.86-18 336.86 0 333.21 0ZM351.51-30.05Q350.61-30.05 350.06-30.6L350.06-30.6Q349.41-31.25 349.41-32.2L349.41-32.2Q349.41-33.15 350.06-33.8L350.06-33.8Q350.61-34.35 351.51-34.35L351.51-34.35Q352.46-34.35 353.01-33.85L353.01-33.85Q353.61-33.2 353.61-32.2L353.61-32.2Q353.61-31.3 353.01-30.6L353.01-30.6Q352.31-30.05 351.51-30.05L351.51-30.05ZM353.31 0L349.66 0 349.66-25 353.31-25 353.31 0ZM369.71 0.5Q364.51 0.5 361.71-2.7 358.91-5.9 358.91-12.25L358.91-12.25Q358.91-18.65 361.68-22.08 364.46-25.5 369.81-25.5L369.81-25.5Q371.56-25.5 373.11-25.03 374.66-24.55 375.73-23.98 376.81-23.4 376.81-23.35L376.81-23.35 376.36-21.3Q376.16-21.45 375.28-21.93 374.41-22.4 373.03-22.85 371.66-23.3 370.21-23.3L370.21-23.3Q366.36-23.3 364.56-20.75 362.76-18.2 362.76-12.3L362.76-12.3Q362.76-6.6 364.66-4.15 366.56-1.7 370.01-1.7L370.01-1.7Q371.96-1.7 373.33-2.4 374.71-3.1 375.46-3.88 376.21-4.65 376.21-4.8L376.21-4.8 377.81-3.75Q377.81-3.55 376.91-2.48 376.01-1.4 374.21-0.45 372.41 0.5 369.71 0.5L369.71 0.5ZM390.75 0.5Q385.75 0.5 382.9-2.63 380.06-5.75 380.06-12L380.06-12Q380.06-18.3 382.81-21.9 385.56-25.5 390.31-25.5L390.31-25.5Q394.6-25.5 396.93-22.53 399.25-19.55 399.25-14.1L399.25-14.1Q399.25-13.15 399.15-12.55 399.06-11.95 399-11.8L399-11.8 383.85-11.8Q383.85-1.7 391.15-1.7L391.15-1.7Q393.15-1.7 394.58-2.43 396-3.15 396.81-3.98 397.6-4.8 397.6-4.95L397.6-4.95 399.06-3.75Q399.06-3.55 398.1-2.48 397.15-1.4 395.31-0.45 393.45 0.5 390.75 0.5L390.75 0.5ZM383.9-13.9L395.85-13.9 395.9-14.85Q395.9-23.35 390.31-23.35L390.31-23.35Q387.35-23.35 385.75-21.03 384.15-18.7 383.9-13.9L383.9-13.9ZM413.35 0L410.05 0 401.5-25 405.8-25 412.3-3.95 419.2-25 421.95-25 413.35 0ZM434.65 0.5Q429.65 0.5 426.8-2.63 423.95-5.75 423.95-12L423.95-12Q423.95-18.3 426.7-21.9 429.45-25.5 434.2-25.5L434.2-25.5Q438.5-25.5 440.82-22.53 443.15-19.55 443.15-14.1L443.15-14.1Q443.15-13.15 443.05-12.55 442.95-11.95 442.9-11.8L442.9-11.8 427.75-11.8Q427.75-1.7 435.05-1.7L435.05-1.7Q437.05-1.7 438.47-2.43 439.9-3.15 440.7-3.98 441.5-4.8 441.5-4.95L441.5-4.95 442.95-3.75Q442.95-3.55 442-2.48 441.05-1.4 439.2-0.45 437.35 0.5 434.65 0.5L434.65 0.5ZM427.8-13.9L439.75-13.9 439.8-14.85Q439.8-23.35 434.2-23.35L434.2-23.35Q431.25-23.35 429.65-21.03 428.05-18.7 427.8-13.9L427.8-13.9ZM448.45 0L448.45-25 451.15-25 451.7-19.85Q451.7-20.15 452.27-21.58 452.85-23 454.05-24.25 455.25-25.5 457.15-25.5L457.15-25.5Q458.1-25.5 459.3-25.18 460.5-24.85 460.85-24.7L460.85-24.7 460.5-21.95Q460.15-22.1 458.92-22.4 457.7-22.7 456.75-22.7L456.75-22.7Q455.3-22.7 454.27-21.73 453.25-20.75 452.75-19.65 452.25-18.55 452.1-18L452.1-18 452.1 0 448.45 0ZM472.99 0.5Q467.99 0.5 465.14-2.63 462.29-5.75 462.29-12L462.29-12Q462.29-18.3 465.04-21.9 467.79-25.5 472.54-25.5L472.54-25.5Q476.84-25.5 479.17-22.53 481.49-19.55 481.49-14.1L481.49-14.1Q481.49-13.15 481.39-12.55 481.29-11.95 481.24-11.8L481.24-11.8 466.09-11.8Q466.09-1.7 473.39-1.7L473.39-1.7Q475.39-1.7 476.82-2.43 478.24-3.15 479.04-3.98 479.84-4.8 479.84-4.95L479.84-4.95 481.29-3.75Q481.29-3.55 480.34-2.48 479.39-1.4 477.54-0.45 475.69 0.5 472.99 0.5L472.99 0.5ZM466.14-13.9L478.09-13.9 478.14-14.85Q478.14-23.35 472.54-23.35L472.54-23.35Q469.59-23.35 467.99-21.03 466.39-18.7 466.14-13.9L466.14-13.9ZM503.64 0.5Q500.34 0.5 498.34-1.13 496.34-2.75 496.34-5.65L496.34-5.65Q496.34-13 510.49-14.5L510.49-14.5 510.49-17.15Q510.49-20.7 509.34-22 508.19-23.3 505.29-23.3L505.29-23.3Q503.99-23.3 502.64-22.83 501.29-22.35 500.36-21.83 499.44-21.3 499.19-21.15L499.19-21.15 498.79-23.2Q499.04-23.4 500.06-23.95 501.09-24.5 502.66-25 504.24-25.5 505.84-25.5L505.84-25.5Q510.14-25.5 512.14-23.7 514.14-21.9 514.14-17.35L514.14-17.35 514.14-5.1Q514.14-3.1 514.51-2.4 514.89-1.7 515.44-1.7L515.44-1.7Q515.89-1.7 516.54-1.88 517.19-2.05 517.39-2.15L517.39-2.15 517.54-0.45Q517.14-0.3 515.84 0.1 514.54 0.5 513.64 0.5L513.64 0.5Q512.34 0.5 511.64-0.33 510.94-1.15 510.79-3.25L510.79-3.25 510.74-3.25Q510.74-3.05 509.94-2.1 509.14-1.15 507.56-0.33 505.99 0.5 503.64 0.5L503.64 0.5ZM504.74-1.7Q506.54-1.7 507.84-2.5 509.14-3.3 509.81-4.25 510.49-5.2 510.49-5.35L510.49-5.35 510.49-12.65Q505.94-12.15 503.01-10.7 500.09-9.25 500.09-6.1L500.09-6.1Q500.09-3.95 501.34-2.83 502.59-1.7 504.74-1.7L504.74-1.7ZM522.34 0L522.34-25 525.34-25 525.79-22.35Q526.64-23.35 528.39-24.43 530.14-25.5 532.84-25.5L532.84-25.5Q534.89-25.5 536.16-24.78 537.44-24.05 538.09-22.45L538.09-22.45Q538.89-23.4 540.74-24.45 542.59-25.5 545.39-25.5L545.39-25.5Q548.54-25.5 549.99-23.85 551.44-22.2 551.44-18.35L551.44-18.35 551.44 0 547.79 0 547.79-17.95Q547.79-20.85 546.89-21.88 545.99-22.9 544.04-22.9L544.04-22.9Q541.99-22.9 540.61-21.98 539.24-21.05 538.59-20.15L538.59-20.15Q538.69-19.05 538.69-18.4L538.69-18.4 538.69 0 535.04 0 535.04-17.95Q535.04-20.8 534.16-21.85 533.29-22.9 531.39-22.9L531.39-22.9Q529.29-22.9 527.86-21.95 526.44-21 525.94-20.2L525.94-20.2 525.94 0 522.34 0ZM567.33 0.5Q562.13 0.5 559.41-2.9 556.68-6.3 556.68-12.5L556.68-12.5Q556.68-18.7 559.41-22.1 562.13-25.5 567.33-25.5L567.33-25.5Q572.53-25.5 575.26-22.1 577.98-18.7 577.98-12.5L577.98-12.5Q577.98-6.35 575.21-2.93 572.43 0.5 567.33 0.5L567.33 0.5ZM567.33-1.7Q570.83-1.7 572.48-4.38 574.13-7.05 574.13-12.5L574.13-12.5Q574.13-17.9 572.48-20.6 570.83-23.3 567.33-23.3L567.33-23.3Q563.83-23.3 562.18-20.63 560.53-17.95 560.53-12.5L560.53-12.5Q560.53-7.05 562.18-4.38 563.83-1.7 567.33-1.7L567.33-1.7ZM583.58 0L583.58-25 586.28-25 586.83-19.85Q586.83-20.15 587.41-21.58 587.98-23 589.18-24.25 590.38-25.5 592.28-25.5L592.28-25.5Q593.23-25.5 594.43-25.18 595.63-24.85 595.98-24.7L595.98-24.7 595.63-21.95Q595.28-22.1 594.06-22.4 592.83-22.7 591.88-22.7L591.88-22.7Q590.43-22.7 589.41-21.73 588.38-20.75 587.88-19.65 587.38-18.55 587.23-18L587.23-18 587.23 0 583.58 0ZM608.13 0.5Q603.13 0.5 600.28-2.63 597.43-5.75 597.43-12L597.43-12Q597.43-18.3 600.18-21.9 602.93-25.5 607.68-25.5L607.68-25.5Q611.98-25.5 614.3-22.53 616.63-19.55 616.63-14.1L616.63-14.1Q616.63-13.15 616.53-12.55 616.43-11.95 616.38-11.8L616.38-11.8 601.23-11.8Q601.23-1.7 608.53-1.7L608.53-1.7Q610.53-1.7 611.95-2.43 613.38-3.15 614.18-3.98 614.98-4.8 614.98-4.95L614.98-4.95 616.43-3.75Q616.43-3.55 615.48-2.48 614.53-1.4 612.68-0.45 610.83 0.5 608.13 0.5L608.13 0.5ZM601.28-13.9L613.23-13.9 613.28-14.85Q613.28-23.35 607.68-23.35L607.68-23.35Q604.73-23.35 603.13-21.03 601.53-18.7 601.28-13.9L601.28-13.9ZM635.42-30.05Q634.52-30.05 633.97-30.6L633.97-30.6Q633.32-31.25 633.32-32.2L633.32-32.2Q633.32-33.15 633.97-33.8L633.97-33.8Q634.52-34.35 635.42-34.35L635.42-34.35Q636.37-34.35 636.92-33.85L636.92-33.85Q637.52-33.2 637.52-32.2L637.52-32.2Q637.52-31.3 636.92-30.6L636.92-30.6Q636.22-30.05 635.42-30.05L635.42-30.05ZM637.22 0L633.57 0 633.57-25 637.22-25 637.22 0ZM644.72 0L644.72-25 647.72-25 648.17-22.6Q648.97-23.55 650.67-24.53 652.37-25.5 655.57-25.5L655.57-25.5Q659.17-25.5 661.17-23.48 663.17-21.45 663.17-17.45L663.17-17.45 663.17 0 659.52 0 659.52-16.7Q659.52-19.9 658.22-21.38 656.92-22.85 654.37-22.85L654.37-22.85Q652.57-22.85 651.22-22.3 649.87-21.75 649.1-21.1 648.32-20.45 648.32-20.35L648.32-20.35 648.32 0 644.72 0ZM690.87 0.5Q685.67 0.5 682.87-2.7 680.07-5.9 680.07-12.25L680.07-12.25Q680.07-18.65 682.84-22.08 685.62-25.5 690.97-25.5L690.97-25.5Q692.72-25.5 694.27-25.03 695.82-24.55 696.89-23.98 697.97-23.4 697.97-23.35L697.97-23.35 697.52-21.3Q697.32-21.45 696.44-21.93 695.57-22.4 694.19-22.85 692.82-23.3 691.37-23.3L691.37-23.3Q687.52-23.3 685.72-20.75 683.92-18.2 683.92-12.3L683.92-12.3Q683.92-6.6 685.82-4.15 687.72-1.7 691.17-1.7L691.17-1.7Q693.12-1.7 694.49-2.4 695.87-3.1 696.62-3.88 697.37-4.65 697.37-4.8L697.37-4.8 698.97-3.75Q698.97-3.55 698.07-2.48 697.17-1.4 695.37-0.45 693.57 0.5 690.87 0.5L690.87 0.5ZM708.26 0.5Q704.96 0.5 702.96-1.13 700.96-2.75 700.96-5.65L700.96-5.65Q700.96-13 715.11-14.5L715.11-14.5 715.11-17.15Q715.11-20.7 713.96-22 712.81-23.3 709.91-23.3L709.91-23.3Q708.61-23.3 707.26-22.83 705.91-22.35 704.99-21.83 704.06-21.3 703.81-21.15L703.81-21.15 703.41-23.2Q703.66-23.4 704.69-23.95 705.71-24.5 707.29-25 708.86-25.5 710.46-25.5L710.46-25.5Q714.76-25.5 716.76-23.7 718.76-21.9 718.76-17.35L718.76-17.35 718.76-5.1Q718.76-3.1 719.14-2.4 719.51-1.7 720.06-1.7L720.06-1.7Q720.51-1.7 721.16-1.88 721.81-2.05 722.01-2.15L722.01-2.15 722.16-0.45Q721.76-0.3 720.46 0.1 719.16 0.5 718.26 0.5L718.26 0.5Q716.96 0.5 716.26-0.33 715.56-1.15 715.41-3.25L715.41-3.25 715.36-3.25Q715.36-3.05 714.56-2.1 713.76-1.15 712.19-0.33 710.61 0.5 708.26 0.5L708.26 0.5ZM709.36-1.7Q711.16-1.7 712.46-2.5 713.76-3.3 714.44-4.25 715.11-5.2 715.11-5.35L715.11-5.35 715.11-12.65Q710.56-12.15 707.64-10.7 704.71-9.25 704.71-6.1L704.71-6.1Q704.71-3.95 705.96-2.83 707.21-1.7 709.36-1.7L709.36-1.7ZM726.96 0L726.96-25 729.96-25 730.41-22.35Q731.26-23.35 733.01-24.43 734.76-25.5 737.46-25.5L737.46-25.5Q739.51-25.5 740.79-24.78 742.06-24.05 742.71-22.45L742.71-22.45Q743.51-23.4 745.36-24.45 747.21-25.5 750.01-25.5L750.01-25.5Q753.16-25.5 754.61-23.85 756.06-22.2 756.06-18.35L756.06-18.35 756.06 0 752.41 0 752.41-17.95Q752.41-20.85 751.51-21.88 750.61-22.9 748.66-22.9L748.66-22.9Q746.61-22.9 745.24-21.98 743.86-21.05 743.21-20.15L743.21-20.15Q743.31-19.05 743.31-18.4L743.31-18.4 743.31 0 739.66 0 739.66-17.95Q739.66-20.8 738.79-21.85 737.91-22.9 736.01-22.9L736.01-22.9Q733.91-22.9 732.49-21.95 731.06-21 730.56-20.2L730.56-20.2 730.56 0 726.96 0ZM773.11 0.55Q770.51 0.55 768.91-0.28 767.31-1.1 766.51-1.95L766.51-1.95 765.81 0 763.21 0 763.21-37.4 766.86-37.6 766.86-22.15 766.91-22.15Q766.91-22.3 767.63-23.18 768.36-24.05 769.83-24.8 771.31-25.55 773.56-25.55L773.56-25.55Q778.01-25.55 780.71-22.28 783.41-19 783.41-13.2L783.41-13.2Q783.41-6.9 780.76-3.18 778.11 0.55 773.11 0.55L773.11 0.55ZM772.16-1.85Q776.01-1.85 777.78-4.67 779.56-7.5 779.56-13.1L779.56-13.1Q779.56-18.3 777.76-20.73 775.96-23.15 772.51-23.15L772.51-23.15Q770.01-23.15 768.66-21.85 767.31-20.55 766.86-19.55L766.86-19.55 766.86-4.1Q767.21-3.45 768.56-2.65 769.91-1.85 772.16-1.85L772.16-1.85ZM790.81-30.05Q789.91-30.05 789.36-30.6L789.36-30.6Q788.71-31.25 788.71-32.2L788.71-32.2Q788.71-33.15 789.36-33.8L789.36-33.8Q789.91-34.35 790.81-34.35L790.81-34.35Q791.76-34.35 792.31-33.85L792.31-33.85Q792.91-33.2 792.91-32.2L792.91-32.2Q792.91-31.3 792.31-30.6L792.31-30.6Q791.61-30.05 790.81-30.05L790.81-30.05ZM792.61 0L788.96 0 788.96-25 792.61-25 792.61 0ZM808.85 0.5Q803.65 0.5 800.93-2.9 798.2-6.3 798.2-12.5L798.2-12.5Q798.2-18.7 800.93-22.1 803.65-25.5 808.85-25.5L808.85-25.5Q814.05-25.5 816.78-22.1 819.5-18.7 819.5-12.5L819.5-12.5Q819.5-6.35 816.73-2.93 813.95 0.5 808.85 0.5L808.85 0.5ZM808.85-1.7Q812.35-1.7 814-4.38 815.65-7.05 815.65-12.5L815.65-12.5Q815.65-17.9 814-20.6 812.35-23.3 808.85-23.3L808.85-23.3Q805.35-23.3 803.7-20.63 802.05-17.95 802.05-12.5L802.05-12.5Q802.05-7.05 803.7-4.38 805.35-1.7 808.85-1.7L808.85-1.7Z" opacity="1" transform="matrix(1,0,0,1,0,0)" fill="#ffffff" class="slogan-text-1" data-fill-palette-color="secondary" id="text-1"></path></svg></g></svg></g></svg></g></svg></g><g><svg viewBox="0 0 212.20772036288426 212.20772036288426" height="212.20772036288426" width="212.20772036288426"><g><svg></svg></g><g id="icon-0"><svg viewBox="0 0 212.20772036288426 212.20772036288426" height="212.20772036288426" width="212.20772036288426"><g><path d="M0 106.104c0-58.6 47.504-106.104 106.104-106.104 58.6 0 106.104 47.504 106.104 106.104 0 58.6-47.504 106.104-106.104 106.104-58.6 0-106.104-47.504-106.104-106.104zM106.104 198.957c51.281 0 92.853-41.572 92.853-92.853 0-51.281-41.572-92.853-92.853-92.853-51.281 0-92.853 41.572-92.853 92.853 0 51.281 41.572 92.853 92.853 92.853z" data-fill-palette-color="accent" fill="#5245ff" stroke="transparent"></path></g><g transform="matrix(1,0,0,1,58.581698006591054,61.763097984823766)"><svg viewBox="0 0 95.04432434970215 88.68152439323673" height="88.68152439323673" width="95.04432434970215"><g><svg xmlns="http://www.w3.org/2000/svg" xmlns:xlink="http://www.w3.org/1999/xlink" version="1.1" x="0" y="0" viewBox="3.1 1.8 95.60000000000001 89.2" style="enable-background:new 0 0 100 100;" xml:space="preserve" height="88.68152439323673" width="95.04432434970215" class="icon-dxe-0" data-fill-palette-color="accent" id="dxe-0"><rect x="55" y="89" width="3" height="2" fill="#5245ff" data-fill-palette-color="accent"></rect><path d="M74.8 91H74V89H74.8C76.4 89 77.9 88.9 79.3 88.7L79.6 90.7C78.1 90.9 76.5 91 74.8 91" fill="#5245ff" data-fill-palette-color="accent"></path><rect x="67" y="89" width="5" height="2" fill="#5245ff" data-fill-palette-color="accent"></rect><rect x="60" y="89" width="5" height="2" fill="#5245ff" data-fill-palette-color="accent"></rect><path d="M81.7 90.3L81.3 88.3C83 87.9 84.5 87.4 86 86.8L86.8 88.6C85.2 89.4 83.5 89.9 81.7 90.3" fill="#5245ff" data-fill-palette-color="accent"></path><path d="M88.7 87.7L87.7 86C89.1 85.2 90.4 84.2 91.6 83.1L93 84.5C91.7 85.7 90.3 86.8 88.7 87.7" fill="#5245ff" data-fill-palette-color="accent"></path><path d="M94.4 82.9L92.8 81.6C93.8 80.3 94.7 79 95.3 77.5L97.1 78.3C96.5 79.9 95.6 81.5 94.4 82.9" fill="#5245ff" data-fill-palette-color="accent"></path><path d="M97.9 76.2L96 75.7C96.4 74.2 96.7 72.6 96.7 71L98.7 70.9C98.6 72.8 98.4 74.5 97.9 76.2" fill="#5245ff" data-fill-palette-color="accent"></path><path d="M96.5 69C96.3 67.4 95.9 65.8 95.2 64.4L97 63.6C97.7 65.3 98.2 67 98.4 68.8z" fill="#5245ff" data-fill-palette-color="accent"></path><path d="M94.4 62.6C93.6 61.2 92.6 59.9 91.4 58.8L92.8 57.4C94.1 58.7 95.2 60.1 96.1 61.6z" fill="#5245ff" data-fill-palette-color="accent"></path><path d="M90 57.5C88.7 56.5 87.3 55.7 85.8 55L86.6 53.2C88.3 53.9 89.8 54.8 91.2 55.9z" fill="#5245ff" data-fill-palette-color="accent"></path><path d="M83.9 54.4C82.4 53.9 80.8 53.5 79.1 53.3L79.4 51.3C81.2 51.5 82.9 51.9 84.6 52.5z" fill="#5245ff" data-fill-palette-color="accent"></path><path d="M77.2 53.1C76.5 53 75.7 53 75 53H72V51H75C75.8 51 76.6 51 77.3 51.1z" fill="#5245ff" data-fill-palette-color="accent"></path><rect x="65" y="51" width="5" height="2" fill="#5245ff" data-fill-palette-color="accent"></rect><path d="M63 53H57.8L57.9 51H63z" fill="#5245ff" data-fill-palette-color="accent"></path><path d="M55.6 52.8C53.7 52.5 52 52 50.4 51.2L51.3 49.4C52.7 50.1 54.2 50.5 55.9 50.8z" fill="#5245ff" data-fill-palette-color="accent"></path><path d="M48.6 50C47 48.9 45.8 47.5 44.9 45.9L46.7 44.9C47.4 46.2 48.5 47.4 49.8 48.3z" fill="#5245ff" data-fill-palette-color="accent"></path><path d="M44 43.9C43.7 42.8 43.5 41.7 43.5 40.5 43.5 39.8 43.6 39 43.7 38.3L45.7 38.7C45.6 39.3 45.5 39.9 45.5 40.5 45.5 41.4 45.6 42.4 45.9 43.3z" fill="#5245ff" data-fill-palette-color="accent"></path><path d="M46.2 36.9L44.4 36.1C45.1 34.4 46.2 32.9 47.7 31.6L49 33.1C47.7 34.3 46.8 35.5 46.2 36.9" fill="#5245ff" data-fill-palette-color="accent"></path><path d="M50.5 32.1L49.5 30.4C51 29.5 52.7 28.8 54.6 28.4L55 30.4C53.3 30.7 51.8 31.3 50.5 32.1" fill="#5245ff" data-fill-palette-color="accent"></path><path d="M56.8 30.1L56.6 28.1C57.4 28 58.2 28 59 28H62V30H59C58.3 30 57.5 30 56.8 30.1" fill="#5245ff" data-fill-palette-color="accent"></path><rect x="64" y="28" width="3" height="2" fill="#5245ff" data-fill-palette-color="accent"></rect><path d="M52.5 90.3C52.3 90.3 52.1 90.2 51.9 90.1L37.6 80.8C33.9 83.3 29.4 84.7 24.8 84.7 12.8 84.7 3.1 75.7 3.1 64.5S12.8 44.3 24.8 44.3 46.5 53.3 46.5 64.5C46.5 67.5 45.8 70.4 44.4 73.1L53.4 88.6C53.7 89 53.6 89.6 53.2 89.9 53 90.2 52.8 90.3 52.5 90.3M37.6 78.4C37.8 78.4 38 78.5 38.2 78.6L49.2 85.8 42.2 73.8C42 73.5 42 73.1 42.2 72.7 43.6 70.2 44.3 67.5 44.3 64.6 44.3 54.7 35.5 46.6 24.8 46.6S5.3 54.7 5.3 64.6 14.1 82.6 24.8 82.6C29.3 82.6 33.5 81.3 36.9 78.7 37.1 78.5 37.4 78.4 37.6 78.4" fill="#5245ff" data-fill-palette-color="accent"></path><path d="M69.2 28.9C68.9 28.9 68.7 28.8 68.4 28.6 68 28.2 68 27.7 68.2 27.3L73.2 18.7C72.5 17.2 72.1 15.5 72.1 13.8 72.1 7.2 77.9 1.8 85 1.8S97.9 7.2 97.9 13.8 92.1 25.8 85 25.8C82.3 25.8 79.8 25.1 77.7 23.7L69.8 28.8C69.6 28.8 69.4 28.9 69.2 28.9M85 3.9C79.1 3.9 74.3 8.3 74.3 13.7 74.3 15.2 74.7 16.7 75.4 18.1 75.6 18.4 75.6 18.8 75.4 19.2L72.4 24.4 77 21.4C77.4 21.1 77.9 21.2 78.2 21.4 80.1 22.8 82.4 23.5 84.9 23.5 90.8 23.5 95.6 19.1 95.6 13.7S90.9 3.9 85 3.9" fill="#5245ff" data-fill-palette-color="accent"></path></svg></g></svg></g></svg></g></svg></g></svg></g><defs></defs></svg><rect width="395.52" height="123.95812677020363" fill="none" stroke="none" visibility="hidden"></rect></g></svg></g></svg>