<svg width="22" height="16" viewBox="0 0 22 16" fill="none" xmlns="http://www.w3.org/2000/svg">
<path fill-rule="evenodd" clip-rule="evenodd" d="M15.1583 4.23297C15.1583 6.58266 13.2851 8.46673 10.949 8.46673C8.61292 8.46673 6.73974 6.58266 6.73974 4.23297C6.73974 1.88239 8.61292 0.00012207 10.949 0.00012207C13.2851 0.00012207 15.1583 1.88239 15.1583 4.23297ZM10.949 16.0001C7.51785 16.0001 4.58809 15.4562 4.58809 13.2803C4.58809 11.1035 7.49904 10.5397 10.949 10.5397C14.3802 10.5397 17.31 11.0837 17.31 13.2605C17.31 15.4363 14.399 16.0001 10.949 16.0001ZM16.9571 4.30935C16.9571 5.50715 16.5998 6.623 15.973 7.55063C15.9086 7.64609 15.9659 7.77488 16.0796 7.79469C16.2363 7.82171 16.3984 7.83702 16.5631 7.84153C18.2062 7.88475 19.6809 6.82114 20.0883 5.21986C20.6918 2.84136 18.9198 0.706018 16.6634 0.706018C16.4181 0.706018 16.1835 0.732135 15.9551 0.778967C15.9238 0.786172 15.8907 0.800581 15.8728 0.8285C15.8513 0.862723 15.8674 0.908654 15.8889 0.938374C16.5667 1.89392 16.9571 3.0593 16.9571 4.30935ZM19.6782 9.51269C20.7823 9.72974 21.5084 10.1728 21.8093 10.8168C22.0636 11.3454 22.0636 11.9587 21.8093 12.4865C21.349 13.4853 19.8654 13.8059 19.2887 13.8887C19.1696 13.9068 19.0738 13.8032 19.0864 13.6834C19.3809 10.9158 17.0377 9.60365 16.4315 9.30195C16.4055 9.28844 16.4002 9.26773 16.4028 9.25512C16.4046 9.24611 16.4154 9.2317 16.4351 9.229C17.7468 9.20468 19.1571 9.3848 19.6782 9.51269ZM5.43711 7.84144C5.60186 7.83693 5.76304 7.82252 5.92063 7.7946C6.03434 7.77479 6.09165 7.646 6.02718 7.55054C5.4004 6.62291 5.04313 5.50706 5.04313 4.30926C5.04313 3.05921 5.43353 1.89383 6.11135 0.938284C6.13284 0.908564 6.14806 0.862633 6.12746 0.82841C6.10956 0.801392 6.07553 0.786082 6.04509 0.778877C5.81586 0.732045 5.58127 0.705928 5.33593 0.705928C3.07951 0.705928 1.30751 2.84127 1.91191 5.21977C2.31932 6.82105 3.79405 7.88466 5.43711 7.84144ZM5.59694 9.25458C5.59962 9.26809 5.59425 9.2879 5.56918 9.30231C4.9621 9.60401 2.61883 10.9162 2.91342 13.6829C2.92595 13.8035 2.83104 13.9062 2.71195 13.8891C2.13531 13.8062 0.651629 13.4856 0.191392 12.4869C-0.0637974 11.9582 -0.0637974 11.3458 0.191392 10.8171C0.492248 10.1732 1.21752 9.7301 2.32156 9.51215C2.84358 9.38517 4.25294 9.20504 5.5656 9.22936C5.5853 9.23206 5.59515 9.24647 5.59694 9.25458Z" fill="#5D5FEF"/>
</svg>
