<svg width="24" height="24" viewBox="0 0 24 24" fill="none" xmlns="http://www.w3.org/2000/svg">
<g clip-path="url(#clip0_1_2080)">
<path d="M5.1527 22.979L5.08863 20.9054C5.07466 20.3519 4.82349 19.8509 4.43474 19.5036C2.31281 17.6053 1 14.8524 1 11.6389C1 5.53995 5.75683 0.998901 12 0.998901C18.2428 0.998901 23 5.54261 23 11.6419C23 17.7409 18.2432 22.2819 12 22.2819C10.8743 22.2819 9.79918 22.1319 8.79024 21.8554L8.78451 21.8539C8.36091 21.7405 7.89773 21.7669 7.4783 21.9539C7.47731 21.9543 7.47632 21.9548 7.47533 21.9552L5.1527 22.979Z" stroke="white" stroke-width="2"/>
<path fill-rule="evenodd" clip-rule="evenodd" d="M4.79401 15.0439L8.319 9.45187C8.88 8.56087 10.08 8.34187 10.923 8.97187L13.728 11.0749C13.986 11.2669 14.34 11.2669 14.595 11.0719L18.381 8.19787C18.885 7.81387 19.545 8.41987 19.209 8.95687L15.681 14.5459C15.12 15.4369 13.92 15.6559 13.077 15.0259L10.272 12.9229C10.014 12.7309 9.66 12.7309 9.405 12.9259L5.61901 15.7999C5.11501 16.1839 4.45501 15.5809 4.79401 15.0439Z" fill="white"/>
</g>
<defs>
<clipPath id="clip0_1_2080">
<rect width="24" height="24" fill="white"/>
</clipPath>
</defs>
</svg>
