<svg width="24" height="24" viewBox="0 0 24 24" fill="none" xmlns="http://www.w3.org/2000/svg">
<path d="M22.3995 13.168L22.3995 14.0353C22.3995 14.5876 21.9517 15.0353 21.3995 15.0353L17.7426 15.0353C17.1903 15.0353 16.7426 14.5876 16.7426 14.0353L16.7426 11.5004C16.7426 11.0778 16.4721 10.7025 16.0711 10.5688C13.7531 9.79613 11.2469 9.79613 8.9288 10.5688C8.5278 10.7025 8.25733 11.0778 8.25733 11.5004V14.0353C8.25733 14.5876 7.80962 15.0353 7.25733 15.0353L3.60048 15.0353C3.04819 15.0353 2.60048 14.5876 2.60048 14.0353L2.60048 13.168C2.60048 10.1821 4.79606 7.65057 7.75195 7.2283L9.24728 7.01468C11.4048 6.70646 13.5952 6.70646 15.7527 7.01468L17.248 7.2283C20.2039 7.65057 22.3995 10.1821 22.3995 13.168Z" fill="white"/>
</svg>
